{"glyphs":{":":{"x_min":0,"x_max":256,"ha":256,"o":"m 60 363 q 60 392 82 413 q 104 434 134 434 q 164 434 185 414 q 206 395 206 365 q 206 337 184 316 q 162 295 132 295 q 102 295 81 315 q 60 334 60 363 z m 60 68 q 60 97 82 118 q 104 139 134 139 q 164 139 185 119 q 206 99 206 70 q 206 42 184 21 q 162 0 132 0 q 102 0 81 20 q 60 40 60 68 z"},"$":{"x_min":0,"x_max":514,"ha":514,"o":"m 247 392 l 256 572 q 224 569 203 547 q 182 524 182 489 q 182 443 247 392 z m 277 216 l 267 31 q 304 36 327 56 q 350 77 350 107 q 350 162 277 216 z m 423 585 q 433 490 433 444 q 426 438 412 437 q 397 436 387 439 q 380 463 374 480 q 368 497 358 516 q 347 536 332 549 q 316 562 297 568 l 286 366 l 290 364 l 303 357 q 314 352 317 350 q 320 348 331 342 q 342 336 347 333 l 362 323 q 372 317 378 312 l 392 302 q 400 296 406 290 q 413 283 419 277 q 443 250 455 227 q 467 204 467 171 q 467 98 404 41 q 350 -7 265 -9 l 261 -93 q 252 -98 220 -98 l 225 -8 q 173 -7 135 1 q 96 9 76 9 q 58 72 58 162 q 90 170 104 165 q 116 111 150 76 q 184 41 227 32 l 238 242 q 237 243 212 257 q 187 271 179 276 l 152 295 q 133 308 120 320 q 107 332 97 345 q 66 387 66 450 q 66 483 82 514 q 99 544 126 566 q 152 586 188 598 q 225 609 258 610 l 263 689 q 276 694 304 694 l 299 609 q 333 606 370 597 q 407 587 423 585 z"},"?":{"x_min":0,"x_max":430,"ha":430,"o":"m 127 570 q 127 560 132 545 q 136 530 136 516 q 136 498 121 486 q 106 475 83 475 q 62 475 44 491 q 26 507 26 533 q 26 558 39 577 q 51 596 79 619 q 126 658 216 658 q 301 658 351 616 q 401 574 401 505 q 401 487 396 470 q 392 454 382 439 q 372 424 364 413 q 355 402 339 388 q 322 374 314 368 l 288 348 q 274 338 266 331 q 257 323 247 309 q 236 294 230 274 q 225 254 225 229 l 225 216 q 225 196 219 189 q 212 182 192 182 q 173 182 167 190 q 160 198 160 216 l 160 231 q 160 252 162 266 q 163 279 169 302 q 175 325 190 348 q 206 371 231 394 q 286 442 286 512 q 286 560 266 591 q 246 622 206 622 q 173 622 150 606 q 127 591 127 570 z m 121 58 q 121 87 143 108 q 165 129 195 129 q 225 129 246 109 q 267 89 267 60 q 267 32 245 11 q 223 -10 193 -10 q 163 -10 142 10 q 121 30 121 58 z"},"<":{"x_min":0,"x_max":512,"ha":512,"o":"m 153 240 l 471 124 l 471 62 l 42 218 l 42 262 l 471 418 l 471 356 z"},"'":{"x_min":0,"x_max":215,"ha":215,"o":"m 98 411 l 83 415 q 51 585 51 591 q 51 610 69 628 q 86 645 116 645 q 131 645 141 642 q 150 639 155 633 q 159 627 160 622 q 161 616 161 608 q 161 601 152 554 l 133 461 l 124 417 z"},"=":{"x_min":0,"x_max":551,"ha":551,"o":"m 493 198 l 493 142 l 59 142 l 59 198 z m 493 323 l 493 266 l 59 266 l 59 323 z"},"a":{"x_min":0,"x_max":506,"ha":506,"o":"m 295 48 l 289 48 q 262 27 226 9 q 189 -10 169 -10 q 104 -10 74 17 q 44 43 44 95 q 44 112 49 126 q 53 141 61 152 q 68 163 82 173 q 95 184 108 191 q 121 199 142 208 q 162 216 180 222 l 223 236 l 290 257 q 290 294 286 321 q 282 347 275 363 q 269 378 258 387 q 248 396 237 399 q 227 402 213 402 q 174 402 171 379 q 169 370 172 353 q 175 336 175 332 q 175 313 157 300 q 139 286 113 286 q 62 286 62 336 q 62 367 93 393 q 125 418 167 431 q 208 444 247 444 q 418 444 418 271 l 416 127 q 416 89 422 75 q 428 60 444 60 q 467 60 486 74 q 496 66 500 61 q 504 55 504 46 q 475 18 444 4 q 413 -10 373 -10 q 305 -10 295 48 z m 290 218 l 238 201 q 217 194 203 186 q 189 178 181 170 q 174 162 170 151 q 166 140 165 132 q 164 124 164 110 q 164 84 178 67 q 192 50 222 50 q 245 50 290 86 z"},"L":{"x_min":0,"x_max":577,"ha":577,"o":"m 349 42 q 387 42 416 52 q 444 61 462 79 q 480 98 492 119 q 503 141 511 170 q 537 174 554 165 q 545 88 528 -2 q 437 0 408 0 l 185 0 l 31 -2 q 23 2 23 15 q 23 28 31 32 q 47 33 56 34 q 65 35 77 38 q 88 42 93 47 q 99 53 104 62 q 110 72 112 87 q 114 102 114 122 l 114 523 q 114 543 112 558 q 110 573 104 583 q 99 592 93 598 q 88 604 77 607 q 65 610 56 611 q 47 612 31 613 q 23 617 23 630 q 23 643 31 647 q 145 645 185 645 q 203 645 221 645 q 240 646 272 646 l 337 647 q 344 643 344 630 q 344 617 337 613 q 320 612 311 611 q 302 610 291 607 q 280 604 274 598 q 269 592 263 583 q 258 573 256 558 q 254 543 254 523 l 254 121 q 254 42 289 42 z"},"3":{"x_min":0,"x_max":514,"ha":514,"o":"m 248 568 q 232 568 221 566 q 210 564 197 559 q 183 553 174 539 q 165 525 161 504 q 156 477 143 463 q 130 449 99 449 q 61 449 61 486 q 61 499 68 516 q 74 533 89 546 q 105 560 116 568 q 128 577 150 588 q 171 599 201 604 q 230 610 267 610 q 307 610 337 602 q 367 595 384 583 q 401 572 412 557 q 422 542 426 528 q 429 514 429 499 q 429 449 387 402 q 365 377 336 363 q 397 358 432 318 q 467 278 467 222 q 467 145 416 83 q 380 40 325 15 q 271 -10 217 -10 q 141 -10 79 21 q 46 38 46 68 q 46 83 60 97 q 74 111 95 111 q 112 111 126 104 q 140 97 146 91 q 152 85 160 74 q 169 62 177 55 q 184 48 199 40 q 215 32 233 32 q 246 32 258 35 q 271 39 286 48 q 301 58 312 73 q 323 87 330 113 q 338 139 338 172 q 338 207 330 232 q 321 257 309 271 q 297 286 279 294 q 261 302 246 305 q 231 307 213 307 q 195 307 165 299 q 157 308 157 328 q 157 335 158 339 q 228 354 270 397 q 311 440 311 497 q 311 568 248 568 z"},";":{"x_min":0,"x_max":256,"ha":256,"o":"m 60 363 q 60 392 82 413 q 104 434 134 434 q 164 434 185 414 q 206 395 206 365 q 206 337 184 316 q 162 295 132 295 q 102 295 81 315 q 60 334 60 363 z m 123 127 q 164 127 187 96 q 210 64 210 4 q 210 -21 194 -54 q 178 -86 156 -108 q 134 -129 104 -146 q 74 -162 47 -167 q 31 -157 40 -136 q 72 -127 104 -88 q 136 -49 136 -27 q 136 -6 100 6 q 85 10 73 28 q 60 46 60 64 q 60 82 82 104 q 104 127 123 127 z"},"J":{"x_min":0,"x_max":373,"ha":373,"o":"m 281 522 l 281 103 q 281 62 274 27 q 267 -7 258 -30 q 249 -52 233 -73 q 218 -94 207 -104 q 196 -114 179 -129 q 110 -187 28 -187 q 11 -187 -10 -179 q -32 -172 -51 -155 q -70 -138 -70 -116 q -70 -96 -49 -78 q -28 -60 -12 -60 q 2 -60 12 -65 q 22 -70 27 -76 q 31 -81 37 -91 q 43 -102 46 -105 q 63 -128 92 -128 q 103 -128 110 -125 q 118 -123 124 -114 q 129 -104 133 -91 q 136 -78 138 -53 q 140 -28 141 3 q 141 33 141 81 l 141 522 q 141 543 140 557 q 138 571 133 582 q 128 592 123 598 q 117 603 104 606 q 92 610 79 611 q 67 612 44 613 q 40 617 40 630 q 40 643 44 647 q 144 645 210 645 q 260 645 358 647 q 362 643 362 630 q 362 617 358 613 q 332 611 320 609 q 308 606 297 597 q 287 588 284 571 q 281 554 281 522 z"},"V":{"x_min":0,"x_max":700,"ha":700,"o":"m 594 543 q 611 584 633 597 q 655 610 694 613 q 698 617 698 630 q 698 643 694 647 q 620 645 600 645 q 541 645 467 647 q 462 643 462 630 q 462 617 467 613 q 475 612 481 612 q 488 611 496 610 q 503 608 509 607 q 515 605 521 603 q 527 600 531 597 q 534 593 537 589 q 539 584 539 579 q 539 573 536 566 l 398 210 l 381 171 l 366 216 l 242 573 q 241 578 240 582 q 240 586 241 590 q 242 593 244 595 q 246 598 250 600 q 253 603 257 604 q 260 606 266 607 q 272 608 277 609 q 282 610 289 611 q 296 611 302 612 q 308 612 316 613 q 320 617 320 630 q 320 643 316 647 q 242 645 140 645 q 80 645 6 647 q 1 643 1 630 q 1 617 6 613 q 21 611 29 610 q 36 609 49 606 q 61 602 68 597 q 75 592 83 582 q 91 573 96 559 l 314 11 q 318 1 328 -6 q 338 -12 347 -12 q 356 -12 366 -6 q 377 0 381 11 z"},"\"":{"x_min":0,"x_max":376,"ha":376,"o":"m 110 411 l 95 415 q 63 585 63 591 q 63 610 81 628 q 98 645 128 645 q 143 645 153 642 q 162 639 166 633 q 170 627 172 622 q 173 616 173 608 q 173 601 164 554 l 146 461 l 136 417 z m 251 411 l 236 415 q 204 585 204 591 q 204 610 222 628 q 239 645 269 645 q 284 645 294 642 q 303 639 307 633 q 312 627 313 622 q 314 616 314 608 q 314 601 305 554 l 286 461 l 277 417 z"},"7":{"x_min":0,"x_max":514,"ha":514,"o":"m 184 498 q 169 498 159 496 q 148 493 136 485 q 124 477 113 458 q 103 440 95 411 l 60 414 q 79 537 80 611 q 80 614 84 614 q 86 613 102 607 q 118 600 138 600 l 473 600 l 479 591 l 412 446 l 353 309 l 311 208 l 266 94 l 229 -2 l 127 -12 l 121 0 q 277 288 379 498 z"},"S":{"x_min":0,"x_max":504,"ha":504,"o":"m 421 631 q 432 535 432 479 q 424 473 408 472 q 392 471 382 474 q 375 498 369 515 q 363 532 352 552 q 341 573 328 586 q 315 599 295 608 q 275 617 251 617 q 212 617 189 593 q 166 569 166 527 q 166 507 177 486 q 189 465 207 448 q 225 432 242 419 q 260 407 277 398 q 369 351 411 304 q 436 276 449 248 q 463 220 463 184 q 463 105 395 44 q 334 -10 244 -10 q 184 -10 147 -5 q 110 0 89 5 q 67 10 46 10 q 27 73 27 175 q 62 184 77 178 q 92 112 136 72 q 181 32 233 32 q 279 32 308 55 q 337 78 337 115 q 337 153 312 184 q 288 214 246 243 q 235 251 197 273 q 158 295 126 318 q 95 341 74 369 q 58 391 50 423 q 41 455 41 485 q 41 520 59 553 q 77 586 106 610 q 135 634 175 646 q 215 658 252 658 q 293 658 322 653 q 351 648 376 641 q 402 634 421 631 z"},"}":{"x_min":0,"x_max":307,"ha":307,"o":"m 99 -56 l 91 110 q 88 172 114 202 q 140 231 196 247 l 196 251 q 141 274 114 308 q 88 342 91 401 l 99 550 q 102 610 78 647 q 54 684 19 684 q 15 688 15 696 q 15 704 19 708 q 60 708 91 700 q 123 693 149 675 q 176 658 189 625 q 203 592 201 545 l 195 375 q 193 327 217 299 q 240 271 293 265 q 299 259 299 250 q 299 240 293 233 q 241 228 218 198 q 195 168 195 126 l 201 -58 q 202 -91 192 -117 q 182 -144 165 -161 q 147 -178 123 -189 q 99 -201 73 -206 q 47 -211 19 -211 q 15 -207 15 -199 q 15 -191 19 -187 q 34 -183 43 -179 q 52 -175 65 -166 q 78 -156 84 -144 q 91 -131 96 -108 q 101 -86 99 -56 z"},"Z":{"x_min":0,"x_max":624,"ha":624,"o":"m 429 44 q 478 44 513 80 q 548 115 563 177 q 590 177 602 172 q 590 53 575 -5 q 575 -8 571 -8 q 469 0 338 0 l 39 0 q 20 0 20 15 q 20 27 28 38 l 402 579 q 406 585 407 587 q 409 590 410 594 q 412 599 409 600 q 406 602 400 602 l 209 602 q 112 602 81 476 q 54 476 42 481 q 60 557 68 650 q 68 653 72 653 q 173 645 305 645 l 506 645 q 522 645 544 646 q 567 647 572 647 q 589 647 589 637 q 589 628 585 620 q 581 612 567 591 l 213 72 q 202 58 204 51 q 207 44 229 44 z"},"x":{"x_min":0,"x_max":561,"ha":561,"o":"m 183 73 q 177 64 176 57 q 175 50 177 46 q 180 42 186 39 q 193 36 198 35 q 202 34 210 32 q 214 28 214 15 q 214 2 210 -2 q 170 0 100 0 q 57 0 17 -2 q 13 2 13 15 q 13 28 17 32 q 86 42 116 79 l 208 193 q 215 202 211 208 l 122 335 q 105 359 95 371 q 84 383 67 392 q 50 402 29 402 q 24 406 24 419 q 24 432 29 436 q 69 434 155 434 q 255 434 295 436 q 299 432 299 419 q 299 406 295 402 q 278 400 271 398 q 264 397 258 393 q 253 389 255 381 q 257 373 265 360 l 310 284 q 312 279 316 279 q 320 278 322 282 l 376 359 q 391 380 385 390 q 379 399 352 402 q 348 406 348 419 q 348 432 352 436 q 392 434 452 434 q 496 434 536 436 q 541 432 541 419 q 541 406 536 402 q 476 395 441 353 l 352 245 q 348 240 354 230 l 442 99 q 464 66 489 51 q 514 37 545 32 q 549 28 549 15 q 549 2 545 -2 q 505 0 411 0 q 315 0 275 -2 q 271 2 271 15 q 271 28 275 32 q 290 34 297 36 q 303 38 308 42 q 313 46 311 53 q 310 60 303 72 l 255 163 q 251 169 245 160 z"},")":{"x_min":0,"x_max":315,"ha":315,"o":"m 279 251 q 279 120 214 -3 q 149 -126 45 -216 l 17 -182 q 164 -9 164 251 q 164 326 151 394 q 139 463 122 507 q 106 552 82 593 q 59 634 45 651 q 32 668 17 685 l 47 717 q 93 677 131 632 q 168 586 192 547 q 216 508 233 465 q 251 422 259 392 q 268 361 272 328 q 277 296 278 281 q 279 266 279 251 z"},"&":{"x_min":0,"x_max":729,"ha":729,"o":"m 268 536 q 268 519 281 482 q 293 446 311 420 l 316 414 q 397 479 397 527 q 397 562 377 587 q 357 613 328 613 q 312 613 297 605 q 282 597 275 581 q 268 565 268 536 z m 554 355 q 572 398 514 402 q 511 402 508 405 q 506 407 506 409 l 506 433 l 510 436 q 573 434 613 434 l 696 436 l 698 434 l 698 411 q 698 408 695 405 q 691 402 687 402 q 666 400 649 387 q 633 373 612 341 l 491 156 l 503 136 l 516 115 l 528 96 q 536 84 542 78 q 547 71 554 64 q 562 57 568 54 q 575 51 581 51 q 590 51 596 52 q 603 53 612 56 q 621 59 630 68 q 639 76 647 90 q 654 90 664 81 q 674 72 679 61 q 626 -10 556 -10 q 515 -10 481 5 q 448 19 417 63 q 344 -10 237 -10 q 142 -10 93 26 q 39 65 39 150 q 39 207 79 255 q 119 303 214 350 q 178 396 164 426 q 150 457 150 491 q 150 515 163 545 q 175 575 198 600 q 221 625 262 639 q 303 654 347 654 q 380 654 408 643 q 436 631 453 614 q 471 597 480 576 q 490 556 490 537 q 490 511 479 488 q 467 464 445 445 q 423 425 398 409 q 373 394 338 377 l 342 372 q 376 313 447 214 q 450 209 455 208 q 460 206 463 210 q 492 249 519 291 q 545 333 554 355 z m 236 317 q 195 282 181 246 q 167 210 167 170 q 167 119 196 75 q 225 31 256 31 q 293 31 323 48 q 352 65 383 105 q 314 197 236 317 z"},"_":{"x_min":0,"x_max":486,"ha":486,"o":"m 482 -103 l 482 -154 l 5 -154 l 5 -103 z"},"v":{"x_min":0,"x_max":529,"ha":529,"o":"m 342 402 q 337 406 337 419 q 337 432 342 436 q 416 434 453 434 q 475 434 519 436 q 523 432 523 419 q 523 406 519 402 q 503 400 491 396 q 479 391 472 386 q 464 381 457 369 q 449 358 445 350 l 434 324 l 296 11 q 285 -12 257 -12 q 229 -12 221 9 l 90 325 l 84 341 q 80 352 78 354 l 73 366 q 69 374 67 376 l 61 384 q 56 389 52 390 q 47 392 41 395 q 35 398 27 399 q 20 401 10 402 q 5 406 5 419 q 5 432 10 436 q 84 434 133 434 q 185 434 259 436 q 263 432 263 419 q 263 406 259 402 q 249 401 241 400 q 233 398 228 396 l 219 392 q 216 390 215 386 q 214 381 213 379 q 213 376 215 370 q 217 363 218 359 q 219 355 223 346 l 228 331 l 291 153 q 293 146 296 144 q 298 142 302 148 l 381 331 q 398 370 390 384 q 382 399 342 402 z"},"O":{"x_min":0,"x_max":730,"ha":730,"o":"m 351 616 q 279 616 234 545 q 188 474 188 329 q 188 192 243 112 q 299 32 384 32 q 458 32 501 107 q 543 182 543 308 q 543 455 489 536 q 435 616 351 616 z m 694 329 q 694 182 608 89 q 516 -10 364 -10 q 300 -10 241 12 q 182 35 137 75 q 91 115 64 176 q 37 237 37 309 q 37 449 118 546 q 163 599 226 629 q 289 658 363 658 q 455 658 530 618 q 604 578 649 502 q 694 426 694 329 z"},"(":{"x_min":0,"x_max":315,"ha":315,"o":"m 36 253 q 36 384 101 507 q 167 631 270 720 l 298 686 q 151 513 151 253 q 151 178 164 110 q 176 41 193 -3 q 209 -48 233 -89 q 256 -130 270 -147 q 283 -164 298 -181 l 268 -213 q 222 -173 184 -128 q 146 -83 123 -43 q 99 -4 82 39 q 64 82 56 112 q 47 143 42 176 q 38 208 37 223 q 36 238 36 253 z"},"C":{"x_min":0,"x_max":706,"ha":706,"o":"m 397 -10 q 246 -10 158 53 q 101 95 69 168 q 37 241 37 315 q 37 396 66 461 q 95 527 144 570 q 194 612 259 635 q 324 658 398 658 q 452 658 495 648 q 538 638 568 626 q 599 615 617 613 q 635 500 639 458 q 630 454 618 452 q 605 450 596 453 q 587 481 578 503 q 568 525 551 547 q 535 569 513 584 q 492 598 459 607 q 427 616 387 616 q 329 616 283 578 q 237 540 213 476 q 188 412 188 334 q 188 257 215 190 q 243 123 291 82 q 339 42 396 42 q 524 42 618 146 q 626 146 636 139 q 647 132 651 125 q 600 59 535 24 q 470 -10 397 -10 z"},"W":{"x_min":0,"x_max":1028,"ha":1028,"o":"m 575 613 l 715 216 l 729 174 l 742 210 l 855 545 q 864 572 843 591 q 822 609 791 613 q 787 617 787 630 q 787 643 791 647 q 865 645 924 645 q 944 645 1018 647 q 1022 643 1022 630 q 1022 617 1018 613 q 984 610 956 588 q 929 565 913 522 l 725 11 q 721 -1 710 -7 q 700 -12 691 -12 q 683 -12 672 -5 q 661 3 658 11 l 505 410 l 355 11 q 346 -12 321 -12 q 296 -12 288 11 l 100 559 q 95 575 86 585 q 77 596 63 601 q 50 606 39 609 q 27 611 10 613 q 5 617 5 630 q 5 643 10 647 q 84 645 144 645 q 246 645 320 647 q 324 643 324 630 q 324 617 320 613 q 312 612 306 612 q 300 611 293 611 q 286 610 281 609 q 276 608 270 607 q 265 606 261 604 l 254 601 q 250 599 248 596 q 247 593 245 590 q 244 586 244 582 q 245 578 246 573 l 355 216 l 364 184 l 372 210 l 515 613 q 546 606 575 613 z"},"A":{"x_min":0,"x_max":740,"ha":740,"o":"m 273 283 l 425 283 l 343 520 l 336 520 l 248 296 q 245 289 250 286 q 256 283 273 283 z m 165 79 q 162 72 162 65 q 162 59 164 55 q 167 50 170 47 q 173 43 180 41 l 191 37 q 196 36 205 35 q 214 34 219 33 q 225 33 234 32 q 238 28 238 15 q 238 2 234 -2 q 160 0 101 0 q 81 0 7 -2 q 2 2 2 15 q 2 28 7 32 q 26 34 38 36 q 49 38 62 45 q 76 52 87 66 q 97 80 107 102 l 324 614 q 357 614 434 658 l 640 86 q 646 69 655 58 q 664 47 676 42 q 688 38 697 36 q 707 34 723 33 q 728 32 730 32 q 734 28 734 15 q 734 2 730 -2 q 656 0 596 0 q 499 0 425 -2 q 420 2 420 15 q 420 28 425 32 q 431 33 440 33 q 449 34 455 34 q 460 34 468 35 q 476 36 480 37 q 484 38 489 40 q 494 42 497 44 q 499 47 501 51 q 502 54 502 60 q 501 65 499 72 l 443 235 l 253 235 q 235 235 229 231 q 222 228 218 218 z"},"f":{"x_min":0,"x_max":391,"ha":391,"o":"m 230 128 q 230 96 233 78 q 236 60 246 50 q 256 40 269 36 q 282 33 307 32 q 312 28 312 15 q 312 2 307 -2 q 221 0 165 0 q 107 0 23 -2 q 19 2 19 15 q 19 28 23 32 q 48 33 61 36 q 74 40 84 50 q 94 60 97 77 q 100 95 100 126 l 100 384 l 50 384 q 34 384 28 386 q 23 389 23 394 l 23 421 q 23 426 47 430 q 71 434 98 434 l 100 434 l 100 454 q 100 500 111 536 q 122 573 135 595 q 149 617 171 640 q 198 669 236 684 q 274 698 312 698 q 350 698 378 691 q 406 683 421 671 q 436 659 442 647 q 449 635 449 624 q 449 593 434 576 q 418 560 392 560 q 366 560 347 576 q 328 592 321 617 q 316 633 314 639 q 312 645 307 650 q 301 656 293 656 q 285 656 278 653 q 271 649 261 638 q 252 627 246 610 q 239 592 235 560 q 230 527 230 485 l 230 434 l 331 434 q 344 434 348 432 q 351 429 351 424 l 351 401 q 351 384 316 384 l 230 384 z"},"Q":{"x_min":0,"x_max":730,"ha":730,"o":"m 351 616 q 279 616 234 545 q 188 474 188 329 q 188 192 243 112 q 299 32 384 32 q 458 32 501 107 q 543 182 543 308 q 543 455 489 536 q 435 616 351 616 z m 694 329 q 694 182 608 89 q 540 16 435 -4 q 384 -18 322 -60 l 328 -60 q 365 -60 404 -74 q 443 -89 471 -106 q 499 -123 533 -137 q 568 -152 597 -152 q 621 -152 645 -143 q 669 -134 684 -115 l 701 -137 q 669 -183 636 -206 q 602 -229 557 -229 q 521 -229 487 -218 q 453 -208 426 -192 l 375 -161 q 350 -146 323 -135 q 296 -124 271 -124 q 254 -124 234 -138 q 214 -160 198 -183 l 159 -153 q 168 -139 176 -130 q 237 -57 328 -8 q 270 -2 217 22 q 165 47 125 87 q 84 127 61 185 q 37 242 37 309 q 37 449 118 546 q 163 599 226 629 q 289 658 363 658 q 455 658 530 618 q 604 578 649 502 q 694 426 694 329 z"},"w":{"x_min":0,"x_max":777,"ha":777,"o":"m 482 331 l 548 164 q 550 159 552 157 q 555 155 557 157 q 560 159 562 165 l 620 322 q 635 360 627 379 q 619 399 580 402 q 576 406 576 419 q 576 432 580 436 q 654 434 697 434 q 719 434 763 436 q 768 432 768 419 q 768 406 763 402 q 743 400 728 393 q 713 386 703 373 q 692 359 687 348 q 681 336 672 315 l 550 11 q 541 -12 515 -12 q 484 -12 476 9 l 380 258 l 286 11 q 277 -12 249 -12 q 241 -12 236 -11 q 230 -10 225 -5 q 219 0 216 9 l 94 325 q 78 367 72 375 q 59 395 25 400 q 20 401 14 402 q 10 406 10 419 q 10 432 14 436 q 88 434 137 434 q 194 434 268 436 q 272 432 272 419 q 272 406 268 402 q 228 398 221 384 q 215 370 229 339 q 231 333 232 331 l 289 161 q 291 156 293 155 q 295 154 297 155 q 298 157 300 160 l 395 423 q 423 420 451 423 q 463 379 482 331 z"},"-":{"x_min":0,"x_max":358,"ha":358,"o":"m 273 215 l 75 215 q 58 215 48 221 q 38 227 38 236 q 38 250 54 272 q 69 294 84 294 l 284 294 q 320 294 320 273 q 320 261 304 238 q 289 215 273 215 z"},"E":{"x_min":0,"x_max":604,"ha":604,"o":"m 318 365 q 370 365 389 377 q 407 389 409 429 q 414 434 431 434 q 448 434 452 429 q 450 370 450 343 q 450 325 452 255 q 448 250 431 250 q 414 250 409 255 q 407 290 387 304 q 368 319 318 319 l 237 319 l 237 90 q 237 70 249 56 q 261 42 278 42 l 379 42 q 433 42 469 77 q 504 112 520 170 q 530 172 543 171 q 557 169 565 165 q 562 150 558 114 q 554 77 549 49 q 544 21 538 -2 q 448 0 400 0 l 165 0 q 59 -1 10 -2 q 5 2 5 15 q 5 28 10 32 q 30 33 41 34 q 51 35 63 38 q 75 42 80 47 q 85 52 90 62 q 95 73 96 87 q 97 101 97 122 l 97 522 q 97 547 94 563 q 92 579 87 589 q 82 599 70 604 q 58 608 46 610 q 34 612 10 613 q 5 617 5 630 q 5 643 10 647 l 164 645 l 459 645 q 485 645 508 649 q 512 649 512 646 q 513 643 515 616 q 517 588 519 553 q 522 519 524 501 q 506 492 481 496 q 472 525 464 542 q 456 560 442 575 q 429 590 410 596 q 391 603 363 603 l 278 603 q 261 603 249 588 q 237 573 237 554 l 237 365 z"},"s":{"x_min":0,"x_max":427,"ha":427,"o":"m 48 146 q 70 151 88 148 q 104 94 135 61 q 167 29 202 29 q 225 29 243 42 q 261 56 261 78 q 261 100 249 122 q 237 144 210 156 q 185 167 150 191 q 116 214 94 239 q 63 273 63 314 q 63 357 97 392 q 121 417 157 430 q 192 444 232 444 q 270 444 292 438 q 315 433 344 420 q 357 374 357 314 q 344 305 318 309 q 299 354 275 378 q 251 402 224 402 q 203 402 189 390 q 176 377 176 360 q 176 306 230 282 q 309 248 346 205 q 377 170 377 119 q 377 88 361 62 q 345 37 319 22 q 293 6 264 -2 q 234 -10 204 -10 q 167 -10 126 -2 q 85 5 65 12 q 55 58 48 146 z"},">":{"x_min":0,"x_max":512,"ha":512,"o":"m 359 238 l 42 354 l 42 416 l 471 259 l 471 215 l 42 60 l 42 122 z"},"l":{"x_min":0,"x_max":325,"ha":325,"o":"m 100 127 l 100 565 q 100 584 100 594 q 99 604 96 614 q 93 623 90 627 q 87 630 77 634 q 68 637 59 638 q 51 639 32 640 q 24 654 29 672 q 82 674 135 682 q 189 689 217 698 q 233 698 233 685 q 230 648 230 583 l 230 127 q 230 95 233 77 q 236 60 246 50 q 256 40 269 36 q 282 33 307 32 q 312 28 312 15 q 312 2 307 -2 q 221 0 165 0 q 107 0 23 -2 q 19 2 19 15 q 19 28 23 32 q 48 33 61 36 q 74 40 84 50 q 94 60 97 77 q 100 95 100 127 z"},"8":{"x_min":0,"x_max":514,"ha":514,"o":"m 260 575 q 237 575 222 569 q 207 562 200 549 q 193 536 190 522 q 188 509 188 489 q 188 427 246 397 l 296 371 q 335 396 335 479 q 335 494 334 505 q 333 516 329 530 q 324 544 316 553 q 309 562 294 569 q 280 575 260 575 z m 451 477 q 451 431 418 396 q 386 361 339 347 l 395 314 q 437 289 458 249 q 480 209 480 163 q 480 133 466 104 q 451 74 424 48 q 396 22 351 6 q 306 -10 250 -10 q 152 -10 93 31 q 34 71 34 147 q 34 202 70 242 q 106 282 182 319 l 161 330 q 106 359 86 388 q 65 417 65 460 q 65 490 77 517 q 89 543 113 564 q 136 585 176 598 q 216 610 267 610 q 360 610 406 573 q 451 536 451 477 z m 252 30 q 267 30 280 32 q 292 35 307 42 q 321 49 332 62 q 342 74 349 94 q 356 115 356 143 q 356 164 354 178 q 351 192 344 208 q 336 224 319 239 q 303 253 277 267 l 223 296 q 204 283 191 266 q 178 249 171 234 q 165 220 162 202 q 158 183 158 174 q 157 165 157 150 l 157 147 q 157 30 252 30 z"},"\\":{"x_min":0,"x_max":307,"ha":307,"o":"m 76 698 l 306 -48 l 241 -48 l 11 698 z"},"e":{"x_min":0,"x_max":484,"ha":484,"o":"m 172 275 l 308 275 q 310 277 310 296 q 310 350 290 376 q 271 402 246 402 q 235 402 219 393 q 203 384 192 368 q 174 341 172 275 z m 426 129 q 433 129 437 119 q 441 109 441 98 q 404 44 356 17 q 307 -10 254 -10 q 201 -10 166 2 q 130 14 101 40 q 70 68 54 110 q 37 152 37 198 q 37 253 57 301 q 76 348 108 379 q 139 409 178 427 q 217 444 257 444 q 299 444 332 433 q 364 423 384 406 q 403 389 416 365 q 428 341 433 317 q 437 293 437 266 q 437 235 408 235 l 168 235 q 168 232 167 228 q 167 223 167 219 q 167 147 200 112 q 233 76 293 76 q 375 76 426 129 z"},"b":{"x_min":0,"x_max":542,"ha":542,"o":"m 74 127 l 74 565 q 74 583 74 594 q 73 604 70 614 q 67 623 64 626 q 61 630 51 634 q 42 637 33 638 q 24 639 6 640 q -1 653 3 672 q 56 674 110 682 q 163 689 191 698 q 207 698 207 685 q 204 648 204 583 l 204 388 q 280 444 317 444 q 361 444 395 433 q 429 422 454 393 q 479 365 493 325 q 508 285 508 243 q 508 191 488 144 q 468 96 436 63 q 403 30 362 10 q 321 -10 280 -10 q 241 -10 201 0 q 161 9 134 30 q 121 2 102 -13 q 91 -13 68 -6 q 74 56 74 127 z m 204 348 l 204 67 q 233 32 275 32 q 297 32 315 45 q 332 58 342 78 q 352 98 358 125 q 364 153 366 178 q 368 203 368 230 q 368 301 344 337 q 321 373 282 373 q 243 373 204 348 z"},"%":{"x_min":0,"x_max":637,"ha":637,"o":"m 463 53 q 463 20 483 20 q 514 20 537 60 q 562 103 562 157 q 562 214 523 214 q 508 214 495 199 q 482 185 475 162 q 463 125 463 53 z m 370 91 q 370 132 387 168 q 403 204 437 227 q 470 250 512 250 q 604 250 604 159 q 604 83 567 32 q 530 -19 471 -19 q 417 -19 393 11 q 370 41 370 91 z m 144 369 q 144 336 164 336 q 194 336 218 376 q 243 419 243 473 q 243 530 204 530 q 189 530 176 516 q 163 501 156 478 q 144 442 144 369 z m 51 407 q 51 448 67 484 q 84 520 117 543 q 150 566 193 566 q 239 566 261 544 q 285 543 321 531 q 357 519 364 519 q 468 519 514 569 l 561 548 l 150 -16 l 96 -4 l 462 497 q 406 474 354 474 q 319 474 284 493 q 285 482 285 475 q 285 399 248 348 q 210 297 152 297 q 98 297 74 327 q 51 357 51 407 z"},"m":{"x_min":0,"x_max":905,"ha":905,"o":"m 228 122 q 228 101 229 87 q 229 73 232 63 q 235 53 238 47 q 241 42 248 39 q 255 36 261 34 q 267 33 280 32 q 284 28 284 15 q 284 2 280 -2 q 194 0 163 0 q 110 0 26 -2 q 21 2 21 15 q 21 28 26 32 q 44 34 53 35 q 61 36 71 39 q 82 43 85 48 q 89 53 93 63 q 97 73 97 87 q 98 101 98 122 l 98 309 q 98 351 87 363 q 75 375 33 379 q 32 384 31 395 q 29 406 31 411 q 112 421 197 444 q 219 444 220 427 q 223 404 226 374 q 350 444 391 444 q 434 444 464 424 q 493 405 505 372 q 555 400 607 422 q 659 444 684 444 q 749 444 779 405 q 810 366 810 284 l 810 128 q 810 96 813 78 q 816 60 826 50 q 836 40 849 36 q 862 33 887 32 q 892 28 892 15 q 892 2 887 -2 q 801 0 745 0 q 707 0 623 -2 q 619 2 619 15 q 619 28 623 32 q 646 34 657 40 q 667 46 674 66 q 680 86 680 128 l 680 295 q 680 370 612 370 q 599 370 570 361 q 542 353 516 339 q 519 321 519 284 l 519 128 q 519 103 521 86 q 523 69 527 59 q 531 48 539 43 q 547 37 555 35 q 562 33 576 32 q 581 28 581 15 q 581 2 576 -2 q 490 0 454 0 q 416 0 332 -2 q 328 2 328 15 q 328 28 332 32 q 355 34 366 40 q 376 46 383 66 q 389 86 389 128 l 389 295 q 389 370 319 370 q 285 370 228 336 l 228 321 z"},"#":{"x_min":0,"x_max":514,"ha":514,"o":"m 289 253 l 306 360 l 211 360 q 208 341 202 306 q 195 271 192 253 z m 358 360 l 341 253 l 459 253 l 452 187 l 333 187 l 305 14 l 251 14 l 280 187 l 185 187 q 179 159 170 102 q 160 45 154 14 l 100 14 l 127 187 l 28 187 l 38 253 l 138 253 q 153 349 154 360 l 55 360 l 63 426 l 164 426 l 192 599 l 249 599 l 218 426 l 315 426 l 343 599 l 396 599 l 369 426 l 485 426 l 477 360 z"},",":{"x_min":0,"x_max":244,"ha":244,"o":"m 112 127 q 153 127 176 96 q 199 64 199 4 q 199 -21 183 -54 q 167 -86 145 -108 q 124 -129 94 -146 q 63 -162 36 -167 q 20 -157 29 -136 q 61 -127 93 -88 q 125 -49 125 -27 q 125 -6 89 6 q 74 10 62 28 q 49 46 49 64 q 49 82 71 104 q 93 127 112 127 z"},"n":{"x_min":0,"x_max":616,"ha":616,"o":"m 228 122 q 228 101 229 87 q 229 73 232 63 q 235 53 238 47 q 241 42 248 39 q 255 36 261 34 q 267 33 280 32 q 284 28 284 15 q 284 2 280 -2 q 194 0 163 0 q 110 0 26 -2 q 21 2 21 15 q 21 28 26 32 q 44 34 53 35 q 61 36 71 39 q 82 43 85 48 q 89 53 93 63 q 97 73 97 87 q 98 101 98 122 l 98 309 q 98 351 87 363 q 75 375 33 379 q 32 384 31 395 q 29 406 31 411 q 112 421 197 444 q 219 444 220 427 q 224 397 227 362 q 346 444 393 444 q 526 444 526 284 l 526 128 q 526 96 529 78 q 532 60 542 50 q 552 40 565 36 q 578 33 603 32 q 607 28 607 15 q 607 2 603 -2 q 517 0 461 0 q 423 0 339 -2 q 334 2 334 15 q 334 28 339 32 q 362 34 373 40 q 383 46 390 66 q 396 86 396 128 l 396 295 q 396 370 326 370 q 313 370 285 357 q 258 344 228 323 l 228 321 z"},"h":{"x_min":0,"x_max":619,"ha":619,"o":"m 528 128 q 528 96 531 78 q 534 60 544 50 q 554 40 567 36 q 580 33 605 32 q 609 28 609 15 q 609 2 605 -2 q 519 0 463 0 q 425 0 341 -2 q 336 2 336 15 q 336 28 341 32 q 364 34 375 40 q 385 46 392 66 q 398 86 398 128 l 398 295 q 398 335 377 353 q 356 370 323 370 q 291 370 230 332 l 230 127 q 230 86 236 66 q 242 46 253 40 q 264 34 287 32 q 292 28 292 15 q 292 2 287 -2 q 201 0 165 0 q 107 0 23 -2 q 19 2 19 15 q 19 28 23 32 q 48 33 61 36 q 74 40 84 50 q 94 60 97 77 q 100 95 100 127 l 100 565 q 100 584 100 594 q 99 604 96 614 q 93 623 90 627 q 87 630 77 634 q 68 637 59 638 q 51 639 32 640 q 24 654 29 672 q 82 674 135 682 q 189 689 217 698 q 233 698 233 685 q 230 648 230 583 l 230 372 q 278 402 324 423 q 370 444 395 444 q 528 444 528 284 z"},"z":{"x_min":0,"x_max":452,"ha":452,"o":"m 61 446 q 66 445 76 442 q 85 439 95 438 q 105 436 120 436 l 313 436 q 326 436 350 437 q 375 437 394 438 q 414 438 415 438 q 427 438 427 431 q 427 423 409 394 q 268 161 175 42 l 176 39 l 272 39 q 310 39 330 54 q 351 69 370 110 l 384 139 q 414 139 424 133 q 414 57 392 -3 l 40 0 q 17 0 17 12 q 17 21 26 32 q 151 202 268 395 l 266 397 l 164 394 q 109 392 83 298 q 74 296 60 297 q 46 298 40 301 q 54 388 55 440 q 55 442 57 444 q 59 446 61 446 z"},"B":{"x_min":0,"x_max":654,"ha":654,"o":"m 242 562 l 242 376 l 298 376 q 414 376 414 489 q 414 605 312 605 q 288 605 274 603 q 259 600 253 594 q 246 588 244 581 q 242 574 242 562 z m 242 334 l 242 84 q 242 60 254 50 q 266 40 308 40 q 346 40 374 50 q 403 60 419 74 q 435 89 445 110 q 455 130 458 148 q 461 167 461 187 q 461 254 424 294 q 387 334 313 334 z m 173 645 q 187 645 237 646 q 288 647 315 647 q 373 647 417 637 q 461 627 487 612 q 512 597 528 576 q 543 554 549 534 q 554 514 554 491 q 554 453 527 416 q 499 379 458 361 l 458 359 q 536 338 572 296 q 608 253 608 186 q 608 146 594 113 q 580 81 550 54 q 520 27 465 13 q 411 -2 337 -2 q 304 -2 247 -1 q 190 0 173 0 l 19 -2 q 12 2 12 15 q 12 28 19 32 q 36 33 45 34 q 54 35 65 38 q 76 42 82 47 q 87 53 93 62 q 98 72 100 87 q 102 102 102 122 l 102 523 q 102 543 100 558 q 98 573 93 583 q 87 592 82 598 q 76 604 65 607 q 54 610 45 611 q 36 612 19 613 q 12 617 12 630 q 12 643 19 647 q 133 645 173 645 z"},"K":{"x_min":0,"x_max":706,"ha":706,"o":"m 114 523 q 114 543 112 558 q 110 573 104 583 q 99 592 93 598 q 88 604 77 607 q 65 610 56 611 q 47 612 31 613 q 23 617 23 630 q 23 643 31 647 q 111 645 185 645 q 257 645 337 647 q 344 643 344 630 q 344 617 337 613 q 320 612 311 611 q 302 610 291 607 q 280 604 274 598 q 269 592 263 583 q 258 573 256 558 q 254 543 254 523 l 254 353 q 276 356 300 373 q 324 389 370 430 q 446 493 477 525 q 556 605 472 613 q 468 617 468 630 q 468 643 472 647 q 566 645 595 645 q 596 645 690 647 q 694 643 694 630 q 694 617 690 613 q 672 610 655 605 q 638 599 626 593 q 614 587 597 575 q 581 562 572 555 l 545 530 l 516 504 l 407 407 q 403 403 400 400 q 397 396 396 393 q 395 389 395 387 q 395 385 395 382 q 395 379 395 378 q 395 369 425 333 l 644 74 q 662 53 680 44 q 697 36 722 32 q 727 28 727 15 q 727 2 722 -2 q 628 0 611 0 q 541 0 501 -2 q 497 -2 496 4 q 493 32 460 74 l 309 271 q 294 291 283 299 q 272 307 254 309 l 254 122 q 254 102 256 87 q 258 72 263 62 q 269 53 274 47 q 280 42 291 38 q 302 35 311 34 q 320 33 337 32 q 344 28 344 15 q 344 2 337 -2 q 257 0 185 0 q 111 0 31 -2 q 23 2 23 15 q 23 28 31 32 q 47 33 56 34 q 65 35 77 38 q 88 42 93 47 q 99 53 104 62 q 110 72 112 87 q 114 102 114 122 z"},"R":{"x_min":0,"x_max":716,"ha":716,"o":"m 444 467 q 444 502 436 529 q 428 556 415 571 q 402 587 385 596 q 367 606 350 609 q 333 613 314 613 q 275 613 265 595 q 254 577 254 524 l 254 325 l 297 325 q 325 325 345 328 q 365 331 385 340 q 404 349 417 364 q 429 379 436 405 q 444 431 444 467 z m 346 654 q 458 654 513 621 q 555 596 573 559 q 590 521 590 484 q 590 447 580 417 q 569 386 552 365 q 535 345 515 331 q 496 317 474 308 l 610 98 q 633 63 654 48 q 674 32 706 32 q 709 26 709 15 q 709 3 707 -2 q 691 -10 605 -10 q 564 -10 532 15 q 500 39 473 79 l 356 253 q 348 266 340 271 q 333 277 313 280 q 293 283 254 283 l 254 122 q 254 102 256 87 q 258 72 263 62 q 269 53 274 47 q 280 42 291 38 q 302 35 311 34 q 320 33 337 32 q 344 28 344 15 q 344 2 337 -2 q 257 0 185 0 q 111 0 31 -2 q 23 2 23 15 q 23 28 31 32 q 47 33 56 34 q 65 35 77 38 q 88 42 93 47 q 99 53 104 62 q 110 72 112 87 q 114 102 114 122 l 114 523 q 114 543 112 558 q 110 573 104 583 q 99 592 93 598 q 88 604 77 607 q 65 610 56 611 q 47 612 31 613 q 23 617 23 630 q 23 643 31 647 q 51 647 188 650 q 326 654 346 654 z"},"T":{"x_min":0,"x_max":652,"ha":652,"o":"m 405 123 q 405 102 406 88 q 408 74 413 63 q 417 53 423 47 q 429 42 441 39 q 454 35 467 34 q 479 33 502 32 q 506 28 506 15 q 506 2 502 -2 q 402 0 333 0 q 266 0 168 -2 q 164 2 164 15 q 164 28 168 32 q 191 33 203 34 q 216 35 229 39 q 241 42 247 47 q 252 53 257 63 q 262 74 264 88 q 265 102 265 123 l 265 506 q 265 555 255 580 q 244 605 218 605 l 169 605 q 118 605 87 581 q 57 557 42 499 q 15 499 3 504 q 22 586 28 650 q 28 653 32 653 q 134 645 265 645 l 406 645 q 539 645 630 653 q 631 653 632 652 q 633 650 633 650 q 634 586 646 507 q 635 502 607 502 q 594 559 563 582 q 531 605 473 605 l 451 605 q 425 605 415 580 q 405 554 405 503 z"},"P":{"x_min":0,"x_max":614,"ha":614,"o":"m 346 654 q 458 654 513 621 q 555 596 573 559 q 590 521 590 484 q 590 439 574 396 q 558 354 523 325 q 465 277 333 277 q 319 277 298 280 q 278 292 278 322 q 299 319 328 319 q 389 319 414 353 q 439 388 439 467 q 439 613 314 613 q 275 613 265 595 q 254 577 254 524 l 254 122 q 254 102 256 87 q 258 72 263 62 q 269 53 274 47 q 280 42 291 38 q 302 35 311 34 q 320 33 337 32 q 344 28 344 15 q 344 2 337 -2 q 257 0 185 0 q 111 0 31 -2 q 23 2 23 15 q 23 28 31 32 q 47 33 56 34 q 65 35 77 38 q 88 42 93 47 q 99 53 104 62 q 110 72 112 87 q 114 102 114 122 l 114 523 q 114 543 112 558 q 110 573 104 583 q 99 592 93 598 q 88 604 77 607 q 65 610 56 611 q 47 612 31 613 q 23 617 23 630 q 23 643 31 647 q 51 647 188 650 q 326 654 346 654 z"},"|":{"x_min":0,"x_max":220,"ha":220,"o":"m 140 -233 l 80 -233 l 80 698 l 140 698 z"},"t":{"x_min":0,"x_max":358,"ha":358,"o":"m 63 434 l 91 434 q 91 535 102 550 q 105 554 114 558 q 123 562 136 566 q 149 570 155 572 q 167 577 188 583 q 210 590 215 590 q 223 590 223 581 q 220 534 218 468 l 217 434 l 334 434 q 342 434 342 428 l 342 397 q 342 391 334 387 q 326 384 318 384 l 217 384 q 217 328 217 237 q 218 146 218 127 q 218 92 231 76 q 244 60 262 60 q 300 60 319 74 q 329 66 333 61 q 337 55 337 46 q 321 24 281 7 q 241 -10 201 -10 q 182 -10 158 -2 q 134 5 118 18 q 88 44 88 105 q 88 263 91 384 l 26 384 q 21 384 21 390 l 21 419 q 38 434 63 434 z"},"M":{"x_min":0,"x_max":899,"ha":899,"o":"m 663 116 l 637 534 l 635 534 l 410 5 q 405 -8 391 -8 q 386 -8 380 -4 q 373 0 371 5 l 174 498 l 170 498 l 144 123 q 142 102 143 86 q 144 70 150 59 q 157 47 171 41 q 186 34 210 32 q 214 28 214 15 q 214 2 210 -2 q 150 0 96 0 q 69 0 10 -2 q 5 2 5 15 q 5 28 10 32 q 51 36 65 55 q 81 73 85 121 l 125 533 q 127 554 128 565 q 128 576 125 586 q 123 596 120 600 q 117 604 106 607 q 96 610 87 611 q 78 612 57 613 q 53 617 53 630 q 53 643 57 647 l 262 645 l 441 201 l 446 201 l 636 645 l 837 647 q 841 643 841 630 q 841 617 837 613 q 811 611 797 608 q 783 604 776 596 q 768 588 768 575 q 767 562 768 542 l 798 121 q 800 97 801 85 q 802 74 806 62 q 810 50 813 46 q 816 42 826 39 q 836 35 846 34 q 855 33 875 32 q 879 28 879 15 q 879 2 875 -2 q 809 0 766 0 q 693 0 599 -2 q 595 2 595 15 q 595 28 599 32 q 614 33 621 33 q 627 34 637 35 q 646 37 649 39 q 652 40 657 45 q 662 50 662 54 q 663 59 664 69 q 665 80 664 89 q 664 99 663 116 z"},"g":{"x_min":0,"x_max":521,"ha":521,"o":"m 290 288 q 290 348 274 377 q 258 406 223 406 q 193 406 180 383 q 166 360 166 305 q 166 180 236 180 q 245 180 251 182 q 258 184 266 191 q 273 197 279 208 q 284 220 287 240 q 290 260 290 288 z m 175 -25 q 146 -25 131 -19 q 125 -28 123 -42 q 121 -55 120 -64 q 120 -73 120 -96 q 120 -136 152 -166 q 183 -196 231 -196 q 316 -196 351 -176 q 375 -163 387 -137 q 400 -110 400 -81 q 400 -25 175 -25 z m 467 394 q 450 394 437 405 q 423 417 420 428 q 414 440 401 440 q 394 440 375 430 q 356 419 350 412 q 412 362 412 291 q 412 229 363 185 q 314 142 231 142 q 181 142 158 153 q 157 150 152 141 q 148 132 146 125 q 143 118 143 111 q 143 97 147 88 q 151 79 159 75 q 167 71 173 70 q 179 69 188 69 q 263 69 344 61 q 425 53 451 36 q 478 18 490 -8 q 501 -34 501 -55 q 501 -107 455 -150 q 409 -193 342 -216 q 274 -238 203 -238 q 96 -238 50 -205 q 31 -191 21 -164 q 11 -136 11 -106 q 11 -92 40 -58 q 68 -24 98 -6 q 70 3 57 22 q 44 42 44 68 q 44 82 70 113 q 97 145 123 167 q 88 187 67 223 q 46 258 46 296 q 46 368 114 412 q 163 444 232 444 q 294 444 316 432 q 340 454 378 473 q 417 491 447 491 q 473 491 492 475 q 511 459 511 443 q 511 416 500 405 q 489 394 467 394 z"},"j":{"x_min":0,"x_max":312,"ha":312,"o":"m 102 314 q 102 356 91 368 q 79 380 37 384 q 36 389 35 400 q 34 411 35 416 q 49 418 76 421 q 104 424 120 427 l 157 432 q 177 435 191 438 q 205 440 213 444 q 236 444 236 427 q 232 371 232 321 l 232 110 q 232 20 221 -40 q 209 -99 193 -127 q 177 -154 151 -176 q 117 -204 84 -218 q 52 -232 -1 -232 q -29 -232 -58 -214 q -87 -195 -87 -165 q -87 -145 -69 -125 q -51 -105 -37 -105 q -29 -105 -21 -107 q -13 -109 -8 -112 q -2 -114 5 -120 q 12 -125 14 -128 q 17 -130 24 -138 l 32 -146 l 37 -150 l 41 -154 q 42 -156 44 -158 q 46 -160 48 -160 l 52 -162 q 54 -164 57 -164 q 59 -164 62 -164 q 83 -164 96 -142 q 109 -119 109 -92 q 109 -58 105 -5 q 102 49 102 76 z m 95 596 q 95 621 114 639 q 132 658 165 658 q 194 658 212 637 q 230 617 230 592 q 230 570 210 550 q 190 530 159 530 q 130 530 113 550 q 95 570 95 596 z"},"i":{"x_min":0,"x_max":322,"ha":322,"o":"m 232 122 q 232 101 233 87 q 233 73 237 63 q 241 52 245 47 q 249 42 259 39 q 269 36 277 34 q 286 33 304 32 q 309 28 309 15 q 309 2 304 -2 q 218 0 167 0 q 114 0 30 -2 q 25 2 25 15 q 25 28 30 32 q 48 34 57 35 q 65 36 75 39 q 85 43 89 48 q 93 53 97 63 q 101 73 101 87 q 102 101 102 122 l 102 314 q 102 356 91 368 q 79 380 37 384 q 36 389 35 400 q 34 411 35 416 q 49 418 76 421 q 104 424 120 427 l 157 432 q 177 435 191 438 q 205 440 213 444 q 236 444 236 427 q 232 371 232 321 z m 97 596 q 97 621 115 639 q 134 658 167 658 q 196 658 214 637 q 232 617 232 592 q 232 570 212 550 q 192 530 161 530 q 132 530 115 550 q 97 570 97 596 z"},"y":{"x_min":0,"x_max":558,"ha":558,"o":"m 242 -168 q 234 -183 216 -199 q 198 -215 182 -222 q 161 -232 125 -232 q 101 -232 86 -214 q 74 -200 74 -174 q 74 -157 91 -143 q 107 -128 134 -128 q 141 -128 150 -130 q 159 -132 169 -132 q 188 -132 200 -120 q 211 -109 222 -83 l 246 -28 q 249 -25 248 -19 q 247 -13 246 -10 q 246 -6 241 0 q 237 6 234 10 l 227 21 l 218 32 l 89 328 q 68 375 55 387 q 42 399 10 402 q 5 406 5 419 q 5 432 10 436 q 50 434 121 434 q 180 434 254 436 q 258 432 258 419 q 258 406 254 402 q 241 401 233 399 q 224 397 218 395 q 212 393 210 388 q 208 384 207 380 q 207 377 209 370 q 211 362 213 357 q 215 352 219 342 q 221 339 221 338 l 314 129 q 315 126 315 125 q 315 126 316 127 l 419 358 q 423 367 423 374 q 424 380 421 385 q 417 389 413 392 q 409 396 401 397 q 394 399 387 400 q 381 401 371 402 q 367 406 367 419 q 367 432 371 436 q 445 434 477 434 q 498 434 548 436 q 552 432 552 419 q 552 406 548 402 q 522 400 500 381 q 479 363 467 339 q 388 172 285 -74 q 259 -137 242 -168 z"},"@":{"x_min":0,"x_max":988,"ha":988,"o":"m 586 320 q 586 350 580 365 q 574 381 557 381 q 511 381 476 343 q 414 276 414 164 q 414 72 470 72 q 520 72 557 193 q 586 291 586 320 z m 640 80 q 640 71 644 68 q 648 66 658 66 q 670 66 688 73 q 705 81 726 97 q 747 114 764 137 q 782 161 793 196 q 805 232 805 273 q 805 336 785 390 q 765 443 733 478 q 701 513 661 538 q 620 562 580 573 q 541 584 504 584 q 457 584 411 569 q 366 555 325 525 q 284 495 253 453 q 222 412 204 354 q 186 295 186 228 q 186 182 197 135 q 208 88 234 41 q 260 -5 297 -41 q 335 -77 393 -99 q 451 -121 521 -121 q 639 -121 731 -46 l 752 -75 q 715 -103 685 -120 q 655 -136 608 -148 q 561 -160 502 -160 q 384 -160 291 -113 q 198 -65 145 22 q 92 109 92 221 q 92 299 123 371 q 153 443 207 499 q 261 554 341 588 q 421 621 513 621 q 596 621 667 595 q 738 570 787 525 q 835 480 863 419 q 890 357 890 287 q 890 218 855 157 q 820 97 762 60 q 704 24 638 24 q 576 24 560 39 q 540 58 540 86 q 517 57 486 42 q 455 26 434 26 q 369 26 336 54 q 297 88 297 158 q 297 205 321 252 q 345 299 382 335 q 419 370 466 393 q 512 415 554 415 q 617 415 648 377 l 685 410 l 712 399 l 653 146 q 640 90 640 80 z"},".":{"x_min":0,"x_max":244,"ha":244,"o":"m 49 58 q 49 87 71 108 q 93 129 123 129 q 153 129 174 109 q 195 89 195 60 q 195 32 173 11 q 151 -10 121 -10 q 91 -10 70 10 q 49 30 49 58 z"},"p":{"x_min":0,"x_max":581,"ha":581,"o":"m 95 309 q 95 351 83 363 q 72 375 30 379 q 28 384 27 395 q 26 406 28 411 q 109 421 194 444 q 215 444 217 427 q 220 405 222 377 l 228 377 q 256 403 291 423 q 326 444 346 444 q 433 444 483 394 q 511 366 527 323 q 543 280 543 237 q 543 126 474 58 q 406 -10 292 -10 q 257 -10 225 7 l 225 -110 q 225 -131 226 -145 q 227 -159 230 -169 q 234 -180 238 -185 q 242 -190 251 -193 q 261 -197 270 -198 q 279 -199 297 -200 q 301 -205 301 -217 q 301 -229 297 -234 q 211 -232 160 -232 q 107 -232 23 -234 q 19 -229 19 -217 q 19 -205 23 -200 q 41 -199 50 -198 q 59 -197 69 -193 q 79 -189 82 -184 q 86 -179 90 -169 q 94 -159 94 -145 q 95 -131 95 -110 z m 225 65 q 255 32 286 32 q 317 32 341 48 q 364 63 377 90 q 390 116 396 146 q 403 177 403 210 q 403 292 376 334 q 349 377 314 377 q 295 377 270 366 q 245 356 225 337 q 225 335 225 330 q 225 324 225 321 z"},"X":{"x_min":0,"x_max":718,"ha":718,"o":"m 434 89 l 342 246 q 332 263 325 266 q 319 268 312 258 l 288 224 l 264 187 l 243 154 l 220 116 l 199 82 q 177 38 243 33 q 248 29 248 16 q 248 3 243 -1 q 163 1 121 1 q 69 1 10 -1 q 5 3 5 16 q 5 29 10 33 q 48 37 73 47 q 99 57 118 81 l 282 291 q 294 307 294 315 q 293 323 278 344 l 134 547 q 106 585 87 598 q 68 610 35 613 q 31 617 30 630 q 30 643 34 647 q 94 645 189 645 q 256 645 336 647 q 340 643 340 630 q 340 617 336 613 q 295 611 289 598 q 282 585 301 557 l 378 429 q 385 417 388 413 q 392 409 397 408 q 401 408 407 415 q 454 469 507 564 q 529 608 463 613 q 458 617 458 630 q 458 643 463 647 q 543 645 579 645 q 622 645 681 647 q 686 643 686 630 q 686 617 681 613 q 644 609 620 599 q 597 590 578 565 l 443 389 q 430 373 431 362 q 432 351 448 327 l 603 99 q 628 61 651 48 q 673 36 707 33 q 711 29 712 16 q 712 3 708 -1 q 648 1 566 1 q 490 1 410 -1 q 406 3 406 16 q 406 29 410 33 q 431 34 441 38 q 452 42 453 49 q 454 57 449 66 q 445 74 434 89 z"},"*":{"x_min":0,"x_max":433,"ha":433,"o":"m 197 566 q 193 566 184 568 q 174 570 170 571 q 166 571 156 571 q 133 567 115 567 q 97 566 86 576 q 75 586 75 608 q 75 621 83 630 q 91 640 108 640 q 123 640 136 632 q 150 623 168 609 q 186 595 203 588 q 201 609 187 638 q 173 667 173 679 q 173 694 185 706 q 197 718 211 718 q 226 718 239 709 q 251 700 251 683 q 251 669 239 636 q 227 603 226 588 q 241 594 254 604 q 268 614 275 622 q 283 630 293 636 q 304 642 315 642 q 335 642 344 630 q 354 619 354 608 q 354 587 334 577 q 315 568 285 568 q 249 568 231 565 q 243 552 267 540 q 290 527 303 515 q 316 502 316 480 q 316 467 306 459 q 296 451 284 451 q 262 451 251 467 q 239 482 230 510 q 221 539 213 552 q 207 541 202 524 q 197 508 194 497 q 191 485 186 474 q 181 463 170 457 q 160 451 143 451 q 130 451 122 459 q 114 467 114 479 q 114 494 119 505 q 125 516 134 522 q 143 529 153 534 q 163 540 176 548 q 188 556 197 566 z"},"Y":{"x_min":0,"x_max":624,"ha":624,"o":"m 387 122 q 387 101 388 87 q 390 73 395 62 q 399 52 405 46 q 411 41 423 37 q 436 34 448 33 q 461 32 484 31 q 488 26 488 14 q 488 2 484 -2 q 384 0 325 0 q 248 0 150 -2 q 146 2 146 14 q 146 26 150 31 q 173 32 185 33 q 198 34 210 37 q 223 41 229 46 q 234 52 239 62 q 244 73 246 87 q 247 101 247 122 l 247 259 q 247 286 244 298 q 241 310 227 332 l 100 547 q 76 587 58 599 q 40 610 6 613 q 1 617 1 630 q 0 643 5 647 q 64 645 147 645 q 191 645 271 647 q 275 643 275 630 q 275 617 271 613 q 231 611 224 598 q 218 585 236 557 l 340 373 q 348 360 353 360 q 358 360 363 370 l 466 564 q 478 586 464 598 q 450 610 415 613 q 411 617 411 630 q 411 643 415 647 q 495 645 526 645 q 560 645 619 647 q 624 643 624 630 q 624 617 619 613 q 583 609 565 601 q 549 592 532 565 l 404 351 q 387 324 387 268 z"},"c":{"x_min":0,"x_max":456,"ha":456,"o":"m 422 87 q 393 45 346 18 q 299 -10 255 -10 q 201 -10 165 2 q 128 14 99 42 q 70 70 53 112 q 37 153 37 201 q 37 255 55 301 q 73 347 104 378 q 134 409 174 427 q 214 444 259 444 q 334 444 378 411 q 422 378 422 340 q 422 316 406 300 q 391 284 367 284 q 343 284 325 298 q 307 311 305 331 q 303 359 289 381 q 275 402 250 402 q 209 402 188 360 q 167 318 167 236 q 167 157 208 109 q 248 61 306 61 q 348 61 409 118 q 422 118 422 87 z"},"!":{"x_min":0,"x_max":266,"ha":266,"o":"m 133 658 q 163 658 184 639 q 205 619 205 583 q 205 557 191 477 q 163 308 161 230 q 160 188 133 188 q 115 188 109 200 q 104 213 103 242 q 102 282 93 354 q 84 428 75 480 q 74 484 71 500 l 67 521 q 66 527 64 539 q 62 551 62 562 q 61 572 61 583 q 61 621 83 640 q 105 658 133 658 z m 60 58 q 60 87 82 108 q 104 129 134 129 q 164 129 185 109 q 206 89 206 60 q 206 32 184 11 q 162 -10 132 -10 q 102 -10 81 10 q 60 30 60 58 z"},"/":{"x_min":0,"x_max":316,"ha":316,"o":"m 302 682 l 65 -21 l 2 -21 l 239 682 z"},"[":{"x_min":0,"x_max":397,"ha":397,"o":"m 97 -193 l 97 703 l 342 703 q 346 699 346 688 q 346 677 342 673 q 306 670 283 667 q 261 665 243 658 q 226 652 218 646 q 209 640 204 626 q 199 612 198 599 q 197 585 197 561 l 197 -50 q 197 -68 197 -79 q 198 -90 200 -103 q 203 -115 206 -121 q 210 -127 218 -135 q 225 -142 235 -146 q 245 -149 261 -153 q 277 -157 296 -159 q 314 -161 342 -163 q 346 -167 346 -178 q 346 -188 342 -193 z"},"6":{"x_min":0,"x_max":514,"ha":514,"o":"m 171 289 q 170 278 170 242 q 170 192 176 153 q 183 115 192 92 q 202 69 217 54 q 231 40 245 34 q 259 29 275 29 q 304 29 323 69 q 343 109 343 186 q 343 234 315 274 q 287 315 245 315 q 213 315 171 289 z m 450 569 q 332 563 265 509 q 230 480 206 432 q 182 384 176 331 q 231 359 279 365 q 325 364 362 352 q 398 339 419 321 q 440 303 454 281 q 468 258 472 240 q 477 221 477 204 q 477 176 470 148 q 463 119 446 91 q 430 62 406 40 q 382 18 345 4 q 308 -10 263 -10 q 230 -10 201 -4 q 173 2 143 19 q 113 36 92 63 q 71 91 57 138 q 44 185 44 246 q 44 323 71 395 q 98 466 152 513 q 210 563 275 585 q 339 606 444 610 q 449 603 451 590 q 453 578 450 569 z"},"r":{"x_min":0,"x_max":428,"ha":428,"o":"m 228 268 l 228 122 q 228 101 229 87 q 229 73 233 63 q 237 52 241 47 q 245 42 254 39 q 264 36 273 34 q 282 33 300 32 q 304 28 304 15 q 304 2 300 -2 q 214 0 163 0 q 110 0 26 -2 q 21 2 21 15 q 21 28 26 32 q 44 34 53 35 q 61 36 71 39 q 82 43 85 48 q 89 53 93 63 q 97 73 97 87 q 98 101 98 122 l 98 309 q 98 352 86 364 q 75 376 33 380 q 32 385 31 396 q 29 406 31 411 q 93 417 197 444 q 207 444 213 439 q 219 434 220 427 q 225 378 227 348 l 231 348 q 297 444 350 444 q 376 444 396 426 q 416 408 416 388 q 416 357 398 336 q 381 315 358 315 q 328 315 310 332 l 304 339 q 298 344 296 345 q 294 347 291 349 q 287 351 284 351 q 277 351 271 348 q 264 345 262 343 l 252 334 q 228 311 228 268 z"},"2":{"x_min":0,"x_max":514,"ha":514,"o":"m 50 454 q 50 473 58 494 q 66 515 83 536 q 101 557 125 573 q 150 589 186 600 q 221 610 262 610 q 354 610 410 557 q 453 516 453 449 q 453 434 452 421 q 451 408 446 396 l 438 374 q 436 365 426 352 l 410 332 q 404 324 388 309 l 362 285 l 330 255 l 294 222 l 235 168 q 193 129 189 79 l 319 79 q 353 79 376 101 q 399 124 415 174 q 438 174 460 164 q 447 55 429 0 l 43 0 l 39 32 q 42 54 69 88 q 96 122 183 205 l 268 286 q 305 321 315 354 q 325 389 325 446 q 325 500 299 534 q 271 569 239 569 q 206 569 181 544 q 156 520 156 500 q 156 489 162 474 q 167 459 167 453 q 167 431 149 415 q 131 400 109 400 q 83 400 66 417 q 50 434 50 454 z"},"{":{"x_min":0,"x_max":307,"ha":307,"o":"m 208 552 l 216 386 q 219 324 193 294 q 167 265 111 249 l 111 245 q 166 222 192 188 q 219 154 216 95 l 208 -54 q 205 -114 229 -151 q 253 -188 288 -188 q 292 -192 292 -200 q 292 -208 288 -212 q 248 -212 216 -204 q 185 -197 158 -179 q 131 -162 118 -129 q 104 -96 106 -49 l 112 121 q 113 169 90 197 q 67 225 14 231 q 8 237 8 247 q 8 256 14 263 q 66 268 89 298 q 112 328 112 370 l 106 554 q 105 587 115 613 q 125 640 143 657 q 160 674 184 686 q 208 697 234 702 q 260 707 288 707 q 292 703 292 695 q 292 688 288 683 q 273 679 264 675 q 255 671 242 662 q 229 652 223 639 q 216 626 211 604 q 207 582 208 552 z"},"9":{"x_min":0,"x_max":514,"ha":514,"o":"m 351 311 q 352 322 352 358 q 352 408 346 447 q 339 485 330 508 q 320 531 305 546 q 291 560 277 565 q 263 571 247 571 q 218 571 198 531 q 179 491 179 414 q 179 366 207 326 q 235 285 277 285 q 309 285 351 311 z m 72 31 q 190 37 257 91 q 292 120 316 168 q 340 216 346 270 q 291 241 243 235 q 197 236 160 249 q 124 261 103 279 q 82 297 68 319 q 54 342 50 361 q 45 379 45 396 q 45 424 52 452 q 59 481 76 510 q 92 538 116 560 q 140 582 177 596 q 214 610 259 610 q 292 610 321 604 q 349 598 379 581 q 409 564 430 537 q 451 509 465 462 q 478 416 478 354 q 478 277 451 205 q 424 134 370 87 q 312 37 247 15 q 183 -6 78 -10 q 66 6 72 31 z"}," ":{"x_min":0,"x_max":250,"ha":250,"o":""},"I":{"x_min":0,"x_max":367,"ha":367,"o":"m 114 523 q 114 543 112 558 q 110 573 104 583 q 99 592 93 598 q 88 604 77 607 q 65 610 56 611 q 47 612 31 613 q 23 617 23 630 q 23 643 31 647 q 111 645 185 645 q 257 645 337 647 q 344 643 344 630 q 344 617 337 613 q 320 612 311 611 q 302 610 291 607 q 280 604 274 598 q 269 592 263 583 q 258 573 256 558 q 254 543 254 523 l 254 122 q 254 102 256 87 q 258 72 263 62 q 269 53 274 47 q 280 42 291 38 q 302 35 311 34 q 320 33 337 32 q 344 28 344 15 q 344 2 337 -2 q 257 0 185 0 q 111 0 31 -2 q 23 2 23 15 q 23 28 31 32 q 47 33 56 34 q 65 35 77 38 q 88 42 93 47 q 99 53 104 62 q 110 72 112 87 q 114 102 114 122 z"},"H":{"x_min":0,"x_max":817,"ha":817,"o":"m 564 523 q 564 543 562 558 q 560 573 554 583 q 549 592 543 598 q 538 604 527 607 q 516 610 507 611 q 498 612 481 613 q 474 617 474 630 q 474 643 481 647 q 561 645 635 645 q 707 645 787 647 q 794 643 794 630 q 794 617 787 613 q 771 612 761 611 q 752 610 741 607 q 730 604 725 598 q 719 592 714 583 q 708 573 706 558 q 704 543 704 523 l 704 122 q 704 102 706 87 q 708 72 714 62 q 719 53 725 47 q 730 42 741 38 q 752 35 761 34 q 771 33 787 32 q 794 28 794 15 q 794 2 787 -2 q 707 0 635 0 q 561 0 481 -2 q 474 2 474 15 q 474 28 481 32 q 498 33 507 34 q 516 35 527 38 q 538 42 543 47 q 549 53 554 62 q 560 72 562 87 q 564 102 564 122 l 564 319 l 254 319 l 254 122 q 254 102 256 87 q 258 72 263 62 q 269 53 274 47 q 280 42 291 38 q 302 35 311 34 q 320 33 337 32 q 344 28 344 15 q 344 2 337 -2 q 257 0 185 0 q 111 0 31 -2 q 23 2 23 15 q 23 28 31 32 q 47 33 56 34 q 65 35 77 38 q 88 42 93 47 q 99 53 104 62 q 110 72 112 87 q 114 102 114 122 l 114 523 q 114 543 112 558 q 110 573 104 583 q 99 592 93 598 q 88 604 77 607 q 65 610 56 611 q 47 612 31 613 q 23 617 23 630 q 23 643 31 647 q 111 645 185 645 q 257 645 337 647 q 344 643 344 630 q 344 617 337 613 q 320 612 311 611 q 302 610 291 607 q 280 604 274 598 q 269 592 263 583 q 258 573 256 558 q 254 543 254 523 l 254 367 l 564 367 z"},"4":{"x_min":0,"x_max":514,"ha":514,"o":"m 261 501 q 210 433 77 209 l 261 209 z m 483 209 q 498 209 498 193 q 498 183 489 173 q 479 162 469 162 l 385 162 l 385 122 q 385 104 387 91 q 390 78 393 68 q 397 59 404 53 q 412 46 418 43 q 424 39 436 37 q 447 35 455 34 q 463 33 478 32 q 485 28 485 15 q 485 2 478 -2 l 413 -1 q 380 0 361 0 q 342 0 324 0 l 168 -2 q 161 2 161 15 q 161 28 168 32 q 183 33 191 34 q 199 35 210 37 q 222 39 228 43 q 234 46 242 53 q 249 59 253 68 q 256 78 259 91 q 261 104 261 122 l 261 162 l 84 162 q 58 162 51 169 l 36 187 q 34 191 30 197 l 24 205 q 22 208 22 210 q 22 213 29 223 l 93 320 l 166 431 l 231 526 q 268 578 295 610 l 385 610 l 385 209 z"},"~":{"x_min":0,"x_max":473,"ha":473,"o":"m 152 268 q 73 268 46 204 l 36 207 q 26 219 20 236 q 28 261 43 280 q 57 300 73 311 q 88 322 107 329 q 125 336 139 338 q 154 341 167 341 q 194 341 221 333 q 248 324 263 309 q 277 295 293 288 q 309 280 318 280 q 331 280 343 282 q 356 284 372 290 q 388 296 402 310 q 416 324 424 344 l 434 341 q 444 329 450 312 q 442 287 427 267 q 413 248 397 237 q 382 226 364 219 q 345 211 331 209 q 316 207 303 207 q 283 207 256 217 q 229 227 211 244 q 196 258 183 263 q 170 268 152 268 z"},"D":{"x_min":0,"x_max":734,"ha":734,"o":"m 254 119 q 254 71 275 55 q 295 40 350 40 q 374 40 399 48 q 423 55 448 74 q 473 92 492 119 q 511 146 523 189 q 535 232 535 284 q 535 320 533 350 q 532 379 526 413 q 521 447 511 474 q 501 500 485 525 q 468 551 446 567 q 423 584 390 594 q 357 604 316 604 q 254 604 254 529 z m 185 0 l 31 -2 q 23 2 23 15 q 23 28 31 32 q 47 33 56 34 q 65 35 77 38 q 88 42 93 47 q 99 53 104 62 q 110 72 112 87 q 114 102 114 122 l 114 523 q 114 543 112 558 q 110 573 104 583 q 99 592 93 598 q 88 604 77 607 q 65 610 56 611 q 47 612 31 613 q 23 617 23 630 q 23 643 31 647 q 145 645 185 645 q 204 645 248 646 q 292 646 320 646 q 392 646 452 629 q 512 611 555 581 q 598 550 628 508 q 658 465 672 415 q 686 365 686 309 q 686 234 664 174 q 642 114 605 82 q 555 39 487 18 q 419 -2 347 -2 q 327 -2 266 -1 q 205 0 185 0 z"},"^":{"x_min":0,"x_max":518,"ha":518,"o":"m 259 569 l 169 346 l 112 346 l 239 650 l 281 650 l 407 346 l 350 346 z"},"0":{"x_min":0,"x_max":514,"ha":514,"o":"m 260 568 q 246 568 235 562 q 224 557 212 539 q 200 521 192 491 q 184 461 178 409 q 173 357 173 287 q 173 265 173 251 q 173 238 174 212 q 175 186 177 169 q 180 151 183 128 q 187 105 193 90 q 200 75 208 61 q 216 46 229 39 q 241 32 256 32 q 272 32 287 45 q 301 58 314 89 q 327 120 334 180 q 342 241 342 327 q 342 391 334 439 q 327 487 315 514 q 303 542 289 555 q 275 568 260 568 z m 255 -10 q 202 -10 158 15 q 115 40 87 83 q 60 125 45 180 q 30 236 30 298 q 30 443 95 527 q 160 610 260 610 q 292 610 322 601 q 352 593 382 571 q 412 549 434 516 q 456 482 470 429 q 484 375 484 307 q 484 239 469 183 q 455 128 432 93 q 409 57 378 33 q 348 10 317 0 q 286 -10 255 -10 z"},"F":{"x_min":0,"x_max":540,"ha":540,"o":"m 237 122 q 237 104 239 91 q 242 78 245 68 q 249 59 256 53 q 264 46 270 43 q 276 39 288 37 q 299 35 307 34 q 315 33 330 32 q 337 28 337 15 q 337 2 330 -2 q 250 0 168 0 q 94 0 14 -2 q 7 2 7 15 q 7 28 14 32 q 31 33 40 34 q 49 35 60 38 q 71 42 77 47 q 82 53 88 62 q 93 72 95 87 q 97 102 97 122 l 97 522 q 97 547 94 563 q 92 579 87 589 q 82 599 70 604 q 58 608 46 610 q 34 612 10 613 q 5 617 5 630 q 5 643 10 647 l 164 645 l 464 645 q 490 645 513 649 q 517 649 517 646 q 518 643 520 615 q 521 586 524 550 q 527 514 529 496 q 511 487 486 491 q 477 521 469 539 q 460 556 447 573 q 434 589 415 596 q 396 603 368 603 l 278 603 q 261 603 249 588 q 237 573 237 554 l 237 345 l 318 345 q 370 345 389 357 q 407 369 409 409 q 414 414 431 414 q 448 414 452 409 q 450 350 450 323 q 450 305 452 235 q 448 230 431 230 q 414 230 409 235 q 407 270 387 284 q 368 299 318 299 l 237 299 z"},"`":{"x_min":0,"x_max":392,"ha":392,"o":"m 198 674 l 267 550 q 276 534 276 524 q 276 518 271 513 q 266 508 259 508 q 248 508 224 528 l 103 633 l 105 644 q 114 654 134 665 q 155 676 178 676 q 190 676 198 674 z"},"k":{"x_min":0,"x_max":613,"ha":613,"o":"m 100 127 l 100 565 q 100 584 100 594 q 99 604 96 614 q 93 623 90 627 q 87 630 77 634 q 68 637 59 638 q 51 639 32 640 q 24 654 29 672 q 82 674 135 682 q 189 689 217 698 q 233 698 233 685 q 230 648 230 583 l 230 249 q 251 249 280 259 q 309 268 319 277 q 350 304 383 349 q 394 364 396 373 q 399 383 393 389 q 387 395 375 397 q 363 400 342 402 q 337 406 337 419 q 337 432 342 436 q 416 434 463 434 q 530 434 574 436 q 579 432 579 419 q 579 406 574 402 q 548 399 528 393 q 508 386 492 375 q 476 363 467 354 q 458 346 443 329 q 440 325 438 324 l 389 269 q 383 262 392 249 l 508 78 q 513 70 519 63 l 529 53 q 533 48 540 45 q 547 42 550 40 q 552 38 562 36 q 571 35 573 34 q 574 34 586 33 q 598 32 599 32 q 604 28 604 15 q 604 2 599 -2 q 525 0 465 0 l 385 -2 l 383 0 l 383 26 q 383 44 367 78 q 352 111 299 190 q 286 209 230 209 l 230 127 q 230 97 233 78 q 235 59 242 50 q 249 40 256 37 q 264 34 277 32 q 281 28 281 15 q 281 2 277 -2 q 229 0 165 0 q 107 0 23 -2 q 19 2 19 15 q 19 28 23 32 q 48 33 61 36 q 74 40 84 50 q 94 60 97 77 q 100 95 100 127 z"},"u":{"x_min":0,"x_max":598,"ha":598,"o":"m 510 133 q 510 89 522 74 q 535 59 575 55 q 577 50 578 39 q 579 28 577 23 q 496 13 411 -10 q 390 -10 388 7 q 386 25 383 51 q 338 26 291 8 q 243 -10 217 -10 q 89 -10 89 150 l 89 306 q 89 337 85 356 q 82 375 72 385 q 63 395 52 398 q 41 401 22 402 q 18 406 18 419 q 18 432 22 436 q 108 434 154 434 q 175 434 211 436 q 221 426 221 402 q 221 397 220 376 q 219 355 219 306 l 219 139 q 219 114 224 98 q 229 82 240 75 q 250 68 261 66 q 271 64 289 64 q 337 64 381 91 q 380 111 380 121 l 380 306 q 380 338 377 356 q 374 374 365 384 q 356 394 345 397 q 334 400 313 402 q 309 406 309 419 q 309 432 313 436 q 399 434 445 434 q 466 434 502 436 q 512 426 512 402 q 512 397 511 376 q 510 355 510 306 z"},"]":{"x_min":0,"x_max":397,"ha":397,"o":"m 302 701 l 302 -195 l 57 -195 q 53 -190 53 -180 q 53 -169 57 -165 q 93 -163 116 -160 q 138 -157 156 -151 q 173 -145 181 -138 q 189 -132 195 -118 q 200 -104 201 -91 q 202 -78 202 -53 l 202 558 q 202 577 202 588 q 201 599 199 611 q 196 623 193 629 q 189 636 181 643 q 174 650 164 653 q 154 657 138 661 q 122 665 103 667 q 84 668 57 671 q 53 675 53 686 q 53 697 57 701 z"},"U":{"x_min":0,"x_max":732,"ha":732,"o":"m 227 522 l 227 269 q 227 238 228 218 q 229 197 234 170 q 238 143 249 121 q 260 99 278 82 q 330 32 397 32 q 432 32 460 40 q 488 48 507 61 q 526 74 540 94 q 554 113 562 133 q 569 153 574 180 q 579 206 580 228 q 581 250 581 277 l 581 522 q 581 538 581 550 q 580 561 577 570 l 572 585 q 570 591 563 596 q 556 601 551 603 q 547 605 534 607 q 522 609 515 610 q 507 611 489 613 q 484 617 484 630 q 484 643 489 647 q 588 645 616 645 q 625 645 723 647 q 728 643 728 630 q 728 617 723 613 l 702 610 q 696 609 686 607 q 675 605 672 603 l 662 596 q 656 591 655 585 q 653 580 650 570 q 647 561 646 549 q 646 538 646 522 l 646 295 q 646 240 638 195 q 629 149 610 111 q 590 72 560 46 q 529 20 483 5 q 436 -10 376 -10 q 239 -10 174 32 q 87 88 87 236 l 87 522 q 87 554 84 571 q 81 588 70 597 q 60 606 48 609 q 36 611 10 613 q 5 617 5 630 q 5 643 10 647 q 109 645 156 645 q 221 645 319 647 q 323 643 323 630 q 323 617 319 613 q 297 612 285 611 q 273 610 261 606 q 249 603 244 598 q 239 592 234 582 q 229 571 228 557 q 227 543 227 522 z"},"o":{"x_min":0,"x_max":551,"ha":551,"o":"m 260 402 q 177 402 177 229 q 177 199 183 167 q 190 134 203 103 q 216 72 239 52 q 262 32 291 32 q 306 32 319 40 q 333 47 346 63 q 359 79 366 110 q 374 141 374 184 q 374 286 343 344 q 312 402 260 402 z m 37 207 q 37 308 92 370 q 156 444 276 444 q 385 444 450 380 q 514 316 514 216 q 514 169 498 124 q 481 79 446 47 q 382 -10 275 -10 q 173 -10 105 51 q 37 111 37 207 z"},"N":{"x_min":0,"x_max":740,"ha":740,"o":"m 631 0 q 616 -7 604 -10 q 593 -12 568 -12 q 547 7 528 32 l 193 430 q 176 450 169 450 q 161 450 161 430 l 161 133 q 161 109 162 94 q 164 79 168 68 q 173 57 178 51 q 183 45 195 41 q 207 37 217 36 q 227 34 248 32 q 252 28 252 15 q 252 2 248 -2 q 148 0 136 0 q 122 0 24 -2 q 20 2 20 15 q 20 28 24 32 q 44 34 55 36 q 65 38 77 42 q 89 46 94 52 q 99 58 104 69 q 108 80 110 95 q 111 110 111 133 l 111 550 q 106 572 84 591 q 62 611 32 613 q 28 617 28 630 q 28 643 32 647 l 195 645 l 284 540 l 549 228 q 557 219 562 215 q 568 212 572 215 q 576 219 576 231 l 576 512 q 576 530 575 542 q 575 555 572 565 q 569 576 567 582 q 565 589 559 594 q 552 599 547 602 q 542 604 532 607 q 521 609 513 610 q 505 611 489 613 q 484 617 484 630 q 484 643 489 647 q 588 645 605 645 q 615 645 713 647 q 717 643 717 630 q 717 617 713 613 q 692 611 682 609 q 671 607 660 603 q 648 599 643 593 q 638 587 633 576 q 628 565 627 550 q 626 535 626 512 l 626 102 z"},"+":{"x_min":0,"x_max":537,"ha":537,"o":"m 306 269 l 477 269 l 477 195 l 306 195 l 306 32 l 232 32 l 232 195 l 61 195 l 61 269 l 232 269 l 232 433 l 306 433 z"},"G":{"x_min":0,"x_max":755,"ha":755,"o":"m 407 658 q 460 658 509 649 q 558 641 594 632 q 631 623 655 623 q 665 515 677 459 l 633 453 q 623 487 604 515 q 586 543 558 566 q 530 590 488 603 q 445 616 393 616 q 298 616 241 542 q 183 466 183 327 q 183 286 191 246 q 199 206 217 167 q 235 127 262 98 q 290 68 332 50 q 374 32 425 32 q 466 32 493 41 q 520 50 545 74 l 545 223 q 545 251 527 259 q 510 267 463 271 q 458 275 458 290 q 458 304 463 308 q 557 306 612 306 q 671 306 731 308 q 735 304 735 290 q 735 275 731 271 q 708 269 696 258 q 685 248 685 223 l 685 106 q 685 91 701 78 q 651 38 571 14 q 490 -10 402 -10 q 317 -10 254 8 q 191 26 142 66 q 89 108 61 173 q 32 238 32 307 q 32 388 61 454 q 89 520 142 565 q 251 658 407 658 z"},"q":{"x_min":0,"x_max":573,"ha":573,"o":"m 483 -110 q 483 -131 484 -145 q 485 -159 489 -169 q 492 -180 496 -185 q 500 -190 510 -193 q 520 -197 528 -198 q 537 -199 555 -200 q 560 -205 560 -217 q 560 -229 555 -234 q 469 -232 418 -232 q 365 -232 281 -234 q 276 -229 276 -217 q 276 -205 281 -200 q 299 -199 308 -198 q 316 -197 326 -193 q 336 -189 340 -184 q 344 -179 348 -169 q 352 -159 352 -145 q 353 -131 353 -110 l 353 28 l 348 28 q 266 -10 241 -10 q 201 -10 172 -1 q 144 8 116 28 q 74 59 55 107 q 36 156 36 208 q 36 257 57 301 q 78 345 112 376 q 146 407 193 426 q 239 444 288 444 q 345 444 392 407 q 408 421 431 433 q 454 444 464 444 q 487 444 487 427 q 483 371 483 321 z m 353 71 l 353 366 q 324 402 285 402 q 237 402 206 353 q 176 305 176 229 q 176 177 186 139 q 196 101 214 82 q 231 62 249 54 q 268 46 288 46 q 299 46 319 53 q 340 61 353 71 z"},"d":{"x_min":0,"x_max":561,"ha":561,"o":"m 352 95 q 351 104 351 120 l 351 366 q 334 389 317 395 q 300 402 276 402 q 253 402 234 391 q 215 379 202 359 q 177 317 177 229 q 177 145 202 100 q 227 56 266 56 q 276 56 306 69 q 337 83 352 95 z m 354 48 l 346 48 q 322 32 282 11 q 242 -10 224 -10 q 185 -10 161 0 q 137 9 107 32 q 72 59 55 104 q 37 150 37 198 q 37 263 70 320 q 104 377 159 410 q 215 444 279 444 q 320 444 351 433 l 351 563 q 351 582 351 592 q 351 603 347 612 q 344 621 341 625 q 338 628 329 632 q 319 635 310 636 q 302 637 283 638 q 275 653 280 672 q 333 674 386 682 q 440 689 468 698 q 484 698 484 685 q 481 648 481 583 l 481 133 q 481 89 493 74 q 505 59 546 55 q 547 50 548 39 q 549 28 548 23 q 467 13 382 -10 q 360 -10 359 7 q 356 24 354 48 z"},"1":{"x_min":0,"x_max":514,"ha":514,"o":"m 367 122 q 367 98 373 81 q 379 64 387 55 q 395 46 411 41 q 426 36 438 35 q 449 33 470 32 q 478 28 478 15 q 478 2 470 -2 q 306 0 303 0 l 134 -2 q 126 2 126 15 q 126 28 134 32 q 155 33 166 35 q 178 36 193 41 q 209 46 217 55 q 225 64 231 81 q 237 98 237 122 l 237 435 q 237 470 233 479 q 229 489 218 489 q 172 489 114 464 q 93 478 92 507 l 198 550 q 273 580 308 595 q 338 610 358 610 q 375 610 375 593 q 367 536 367 483 z"},"5":{"x_min":0,"x_max":514,"ha":514,"o":"m 323 188 q 323 260 300 299 q 277 338 240 338 q 205 338 182 332 q 159 326 99 304 l 86 312 l 126 610 q 144 608 188 604 q 232 600 256 600 q 277 600 299 601 q 320 603 334 604 q 349 605 378 608 l 426 613 l 449 600 l 430 514 q 331 508 315 508 q 229 508 170 513 q 164 482 151 381 q 169 385 208 390 q 246 394 269 394 q 356 394 407 345 q 459 296 459 219 q 459 174 443 133 q 427 91 399 60 q 371 28 329 9 q 287 -10 239 -10 q 145 -10 92 18 q 73 28 62 42 q 52 57 52 71 q 52 89 65 104 q 78 118 103 118 q 152 118 178 79 q 208 34 233 34 q 275 34 299 75 q 323 115 323 188 z"}}}
